<svg xmlns="http://www.w3.org/2000/svg" viewBox="0 0 531.1 382.1"><defs><style>.cls-1{isolation:isolate;}.cls-2,.cls-3,.cls-4,.cls-6,.cls-7{fill:#fff;}.cls-2,.cls-3,.cls-4,.cls-5,.cls-6{fill-rule:evenodd;}.cls-3{mix-blend-mode:multiply;}.cls-4{mix-blend-mode:screen;}.cls-5{fill:#231f20;mix-blend-mode:color-dodge;}.cls-6{opacity:0.53;}</style></defs><title>Logo-2</title><g class="cls-1"><g id="Layer_1" data-name="Layer 1"><path class="cls-2" d="M305,101.1c-15,4-11.8-.4-23.7-3.1-5-1.1-10-2-15.3-.2-13.6,4.6-17.5,20.3-13.6,34.8s16.7,28.9,35.5,32S326,147,327.5,121c.7-11.7-8.6-21.4-21-19.6-.9.1-1-.5-1.5-.3Z" transform="translate(-24.5 -13.6)"/><path class="cls-3" d="M301.8,103.5c-8.9,3.6-8.8-.9-14.1-.6-.5.1-7.5-3-6.9,2s8.2,10.7,12.4,10.3c16.3-1.5,20.5-14.3,10.2-12.2-1.1.2-.2,0-1.6.5Z" transform="translate(-24.5 -13.6)"/><path class="cls-4" d="M276.2,103.1c-6.3-3.2-15.1.9-18,7.1-3.7,7.7-3.2,12.9-1.4,21,1.3,6.1,7.4,13.7,12.6,16.9.7.4.5.4-.5-1.3-5.5-9.3-6.6-7.1-8.9-19.7-.7-4,.6-11,3.3-14.1,5.9-6.9,7.7-4.5,12.2-7.7.7-.4.6-2.3.7-2.2Z" transform="translate(-24.5 -13.6)"/><path class="cls-4" d="M314.2,105.7c6.2,3.8,9.4,8.4,9.9,15.8.8,10.8-4.5,21.5-13.4,30.5-1.4,1.4.3-1.1,1.2-2.6,4.2-7.8,12.3-27.3,3.1-34.3-3.5-2.6-4.9-6-2-9.6.5-.6.4-.2,1.2.2Z" transform="translate(-24.5 -13.6)"/><path class="cls-3" d="M314.8,120.7c-1,5.7.3,9.9-1.9,17.3-1.3,4.2-4.1,12.7-7,16-.2.3-2.8,4-2.9,4.3s11.1-6,12.4-7.7,4.5-5.3,6.8-8.4c-7.2,15-20.6,24.7-34.3,22.4s-24.7-11.2-30.8-21.3c7.3,4.3,19.3,14.3,25,13.8,2.2-.2-1.2-1.5-3.1-3.8-4.4-5.1-6.1-7.3-7.5-13.9-.4-2.2,3.1.3,5,.9,9.6,3.4,15.1.9,23.6-3.5,4.3-2.3-1.2,2-9.6-1-2.2-.7.6-.4,3.3-1.2,7.9-2.2,9.7-3.7,14.4-10.4,2.4-3.4,2.7-10.1,5.2-7.6a7.5,7.5,0,0,1,1.4,4.1Z" transform="translate(-24.5 -13.6)"/><path class="cls-2" d="M316.5,13.7c-14.1,9.6-22.7,22.1-26.8,38.4-8.1,31.7,3.6,52.7,2.7,53.3s-3.6.1-3,2.3,9.2,3.5,10.4-.9c.4-1.6-2.8-.1-3.6-2.8-6.4-20.2-7.7-26.2-1.9-47.5,3.5-12.8,9.2-23.1,20.6-29.7,2.9-1.7,1.4,2.3,3.6.4,3.8-3.2-.4-14.6-2-13.5Z" transform="translate(-24.5 -13.6)"/><path class="cls-3" d="M316.5,13.7l-.3.2c2.3,3.3,2.6,13.8-2.1,9.7s-9.8,7.2-11.6,9.5-8.6,16.4-9.8,19.7c-6.2,17.4-5.1,36.4,1.9,53.5,5.7,0-.2,4.6-5.1,1.7,1.3,3,9.2,3,10.3-1.2.4-1.6-2.8-.1-3.6-2.8-6.4-20.2-7.7-26.2-1.9-47.5,3.5-12.8,9.2-23.1,20.6-29.7,2.9-1.7,1.4,2.3,3.6.4,3.8-3.2-.4-14.6-2-13.5Z" transform="translate(-24.5 -13.6)"/><path class="cls-5" d="M314.5,16.8c-5.3,3.9,3.1,9.7,1.3,1.7-.2-.9-1.1-1.9-1.3-1.7Z" transform="translate(-24.5 -13.6)"/><path class="cls-6" d="M265.2,117.8c2.6-12.5,22.6-6.3,12.3,5.5s-14.8,6.7-12.3-5.5Z" transform="translate(-24.5 -13.6)"/><path class="cls-6" d="M273.3,128.9c-10.9,4.6.1,13.4,1,2.1,0-.8-.6-2.3-1-2.1Z" transform="translate(-24.5 -13.6)"/><path class="cls-2" d="M275.4,113.9c-11.5-3-8.1,10.7-.5,2.3.5-.6.9-2.2.5-2.3Z" transform="translate(-24.5 -13.6)"/><path class="cls-2" d="M271.1,124.5c7.4-1.1,1.9-8.2-.3-1.4-.2.5,0,1.5.3,1.4Z" transform="translate(-24.5 -13.6)"/><path class="cls-7" d="M77.6,101.8c7-11.3,18-20,34.9-20,28.6,0,42.6,24.8,42.6,59.7,0,19.9-4.5,38.7-12.4,54.4A48.2,48.2,0,0,0,177,173.1s3.8,2.9,3.8,6c0,6.6-16.4,26.1-45.1,29.2-14.3,21.7-35.3,35.5-58.1,35.5-31.2,0-53.1-26-53.1-63.4,0-50.9,40.7-83.5,47.9-83.5C74.5,96.9,76.6,99.8,77.6,101.8Zm-3.9,8.1c-7.9,9.3-22.3,30.6-22.3,63.7s14,50.8,36.1,50.8c12.9,0,22.8-6.4,30-16.7-33.9-5.6-49.8-36.8-49.8-66C67.7,132.2,69.3,120.4,73.7,109.9Zm50.2,85.6c5.8-13.9,8.5-31.7,8.5-50.1,0-37.6-11.4-51.8-23.6-51.8-14,0-22.5,19.4-22.5,42.7C86.3,163.4,97.5,189.9,123.9,195.5Z" transform="translate(-24.5 -13.6)"/><path class="cls-7" d="M201.2,105.6c0,19.8-6,44.2-9.7,67.7,7.6-12.4,17-22.3,27.5-22.3s14.5,7.9,14.5,22.3c0,11.4-3.3,23-3.3,30.8,0,5,1.6,10.6,6.4,12.9,0,0-6.9,12.6-15.1,12.6s-10.6-7.7-10.6-16.6c0-12.8,4.2-23.5,4.2-36.3,0-6.5-1.3-10.6-4-10.6-6.2,0-19.2,17.8-22.5,35.8a72.2,72.2,0,0,0,2.1,19s-9.3,7.4-15.7,7.4c-3.3,0-5.8-2-5.8-8.2,0-27.5,13-80.4,13-113.1A74.5,74.5,0,0,0,181,92.6S201.2,93.6,201.2,105.6Z" transform="translate(-24.5 -13.6)"/><path class="cls-7" d="M322.5,231.8a106.8,106.8,0,0,1-12.8-1c1-.4,5.8-2.9,14.9-17.4,13.6-22.1,33.3-66.1,42.6-103.3,0-5.4.4-39.9,14.2-39.9,4.4,0,7.5,3.5,7.5,11.7,0,3.6-.7,6.9-2.5,13.3,1.6,23.1,7.2,90.5,19,90.5,8.5,0,18-33.9,26.5-60.8,0-2.3.2-4.1.2-5.8.6-30.6,7.2-40.5,14.5-40.5,3.9,0,7.4,2.9,7.4,14.1,0,8.8-2.3,17.3-4.9,24.3,1.8,40.8,3.9,90.2,20.4,90.2,14.5,0,20.8-31.7,20.8-31.7,2,0,3.9,2.6,3.9,6.2,0,11.5-14.6,49.2-37.3,49.2s-25.4-40.3-25.4-70.2c-10.6,29.1-23,54.6-36.8,54.6-16.6,0-22.6-40.3-24.6-67.6-17.4,56.4-20.1,68-27.5,76C337.8,228.9,332.6,231.8,322.5,231.8Z" transform="translate(-24.5 -13.6)"/><path class="cls-7" d="M483.4,174.8c0-14,4.2-25.6,13.1-25.6,5.5,0,8.8,4.1,8.8,12.2,0,5-1.8,11.4-3.9,16.1.6,15.7,3.1,34.1,8.5,34.1,14.1,0,13.2-65.9,30-65.9,8.9,0,15.7,7,15.7,7-6.2,4.2-23.6,43.4-23.6,85,0,18,.8,34.7,5.6,46.5h-2.5c-6.2,0-22.3-.8-22.3-10.6s2.7-34.9,5.6-56.2c-4.2,6-9.3,8.9-14.3,8.9C486.3,226.3,483.4,195.1,483.4,174.8Z" transform="translate(-24.5 -13.6)"/><path class="cls-7" d="M217,325.3c2.5,0,4,4.1,4,6.2,0,8.9-27.3,64.3-76.3,64.3-30.8,0-53.3-22.2-53.3-60.4,0-48.8,36.3-101.7,83-101.7,22.6,0,34.6,12.2,34.6,27.1s-12.9,26-29.8,26c-11.2,0-19.2-4.7-19.2-13,0-4.5,2.5-6.4,2.5-6.4s3.1,3.5,10.7,3.5c9.5,0,15.3-5.4,15.3-12.6s-6-13.4-16.7-13.4c-27.3,0-53.6,38-53.6,84.1,0,32.2,12.8,47.3,34.7,47.3C193,376.3,217,325.3,217,325.3Z" transform="translate(-24.5 -13.6)"/><path class="cls-7" d="M255.5,308.3c2.7-4.5,5.5-7.6,8.7-7.6s6.8,3.1,6.8,11.1-4.6,20.7-11.4,34.1c.6,9.6,2.7,12,4.6,12,12.6,0,26.6-32.6,26.6-32.6,1.9,0,3.9,2.7,3.9,6.8,0,8.3-21,41.8-37.4,41.8-6.2,0-9.7-3.8-11.8-7.5-4.9,7-11.5,11.8-20.6,11.8-10.8,0-18.4-10.3-18.4-23.2,0-27.9,20.2-51.2,36.6-51.2C248.9,303.8,252.8,305.4,255.5,308.3Zm-11.8,43.2A177.5,177.5,0,0,1,248,328c-1.6-6.6-5.8-9.7-10.3-9.7-6.2,0-14.1,9.5-14.1,25.6,0,9.7,3.8,15.3,8.1,15.3S240.2,356.7,243.7,351.5Z" transform="translate(-24.5 -13.6)"/><path class="cls-7" d="M330.3,317c-5.2,0-25.2,24-25.2,46.3a36.5,36.5,0,0,0,1,9.5s-9.3,7.5-15.7,7.5c-3.3,0-5.8-2.1-5.8-8.3,0-77.3,12.4-131.5,31.2-131.5,7.5,0,13.5,7.1,13.5,22.6,0,17.5-14.1,44.4-24.4,61.6l-.7,7.8c9.1-16.5,21.3-30.8,33.9-30.8,7.9,0,14.7,4.8,14.7,14.1,0,15.7-19.8,29.7-19.8,29.7,2.9,4,3.7,18.2,15.3,18.2,14,0,27.1-37.8,27.1-37.8,1.8,0,3.9,2.7,3.9,6.8,0,11.6-19.9,50.5-38.9,50.5-15.1,0-19.8-18.9-22.9-30.4-3.7-.7-5.6-2.7-5.6-5.4s5.2-8.5,12.2-8.5l1.4.2c4.6-3.7,8.9-9.1,8.9-15.3C334.4,319.3,333.2,317,330.3,317Zm-13.2-56c-4.4,0-7.9,20.7-10.6,46.7,6.2-12.2,12.8-28.1,12.8-40.5C319.3,263.3,318.5,261,317.1,261Z" transform="translate(-24.5 -13.6)"/><path class="cls-7" d="M364.8,353.8c0-25.6,21.3-51.1,39.9-51.1,8.7,0,14.5,5.4,14.5,15.3,0,18.6-20.1,31.7-36.2,35,1.7,10.3,7.4,17.3,17.4,17.3,14.2,0,22.9-14.6,24.4-18.4,1.2,0,2.6,1.7,2.6,5,0,9.9-12.4,27.7-33.7,27.7C376.2,384.6,364.8,372.4,364.8,353.8Zm17.8-9.7c13.2-4.8,20.7-12,20.7-18.8,0-3.7-2.3-6-5.4-6C391.3,319.3,383.6,329.8,382.6,344.1Z" transform="translate(-24.5 -13.6)"/><path class="cls-7" d="M269,230.5c0,10.4-14.9,28.2-25.3,28.2a6.7,6.7,0,0,1-5.5-2.9,135,135,0,0,0,11.2-27.6c1.9-6.7,1.9-9.8,1.9-9.8s3.4-1.6,6.5-1.6C263.3,216.8,269,221.9,269,230.5Z" transform="translate(-24.5 -13.6)"/></g></g></svg>